# xmcd CD database file
#
# Track frame offsets:
#	150
#	26036
#	57968
#	87199
#	119717
#	156747
#	187950
#	220373
#	244901
#	279496
#
# Disc length: 4073 seconds
#
# Revision: 0
# Processed by: cddbd v1.5.2PL0 Copyright (c) Steve Scherf et al.
# Submitted via: CDex 1.70beta3
#
DISCID=970fe70a
DTITLE=Steve Kuhn Trio - I Will Wait For You
DYEAR=2010
DGENRE=Jazz
TTITLE0=I Will Wait For You
TTITLE1=What Are You Doing The Rest Of Your Life
TTITLE2=Watch What Happens
TTITLE3=How Do You Keep The Music Playing
TTITLE4=Summer Me, Winter Me
TTITLE5=Once Upon A Summertime
TTITLE6=Brian's Song
TTITLE7=You Must Believe In Spring
TTITLE8=The Summer Knows
TTITLE9=I Will Wait For You (Reprise)
EXTD=YEAR: 2010
EXTT0=
EXTT1=
EXTT2=
EXTT3=
EXTT4=
EXTT5=
EXTT6=
EXTT7=
EXTT8=
EXTT9=
PLAYORDER=
